# OBJ Export by Luxion KeyShot

mtllib B2.mtl

usemtl B2:color:255:238:34 #1
v -535.07 130 -284.74
v -717.33 0 -284.74
v -717.33 130 -284.74
v -535.07 0 -284.74
v -717.33 0 -284.74
v -717.33 130 -284.74
v -717.33 130 230.92
v -717.33 0 230.92
v -717.33 0 230.92
v -717.33 130 230.92
v -535.07 130 230.92
v -535.07 0 230.92
v -535.07 130 230.92
v -535.07 0 -284.74
v -535.07 130 -284.74
v -535.07 0 230.92
v -535.07 130 230.92
v -717.33 130 230.92
v -717.33 130 -284.74
v -535.07 130 -284.74
v -717.33 0 -284.74
v -535.07 0 -284.74
v -535.07 0 230.92
v -717.33 0 230.92
v -535.07 110 382.06
v -717.33 0 382.06
v -717.33 110 382.06
v -535.07 0 382.06
v -717.33 0 382.06
v -717.33 110 382.06
v -717.33 110 733.242
v -717.33 0 733.242
v -717.33 0 733.242
v -717.33 110 733.242
v -535.07 110 733.242
v -535.07 0 733.242
v -535.07 110 733.242
v -535.07 0 382.06
v -535.07 110 382.06
v -535.07 0 733.242
v -535.07 110 733.242
v -717.33 110 733.242
v -717.33 110 382.06
v -535.07 110 382.06
v -717.33 0 382.06
v -535.07 0 382.06
v -535.07 0 733.242
v -717.33 0 733.242
vn 0 0 -1
vn 0 0 -1
vn 0 0 -1
vn 0 0 -1
vn 1 0 0
vn 1 0 0
vn 1 0 0
vn 1 0 0
vn 0 0 -1
vn 0 0 -1
vn 0 0 -1
vn 0 0 -1
vn 1 0 0
vn 1 0 0
vn 1 0 0
vn 1 0 0
vn 0 -1 0
vn 0 -1 0
vn 0 -1 0
vn 0 -1 0
vn 0 -1 0
vn 0 -1 0
vn 0 -1 0
vn 0 -1 0
vn 0 0 -1
vn 0 0 -1
vn 0 0 -1
vn 0 0 -1
vn 1 0 0
vn 1 0 0
vn 1 0 0
vn 1 0 0
vn 0 0 -1
vn 0 0 -1
vn 0 0 -1
vn 0 0 -1
vn 1 0 0
vn 1 0 0
vn 1 0 0
vn 1 0 0
vn 0 -1 0
vn 0 -1 0
vn 0 -1 0
vn 0 -1 0
vn 0 -1 0
vn 0 -1 0
vn 0 -1 0
vn 0 -1 0
vt 3.25963e-10 1
vt 1 0
vt 1 1
vt 0 0
vt 1 0
vt 1 1
vt 3.25963e-10 1
vt 0 0
vt 1 0
vt 1 1
vt 3.25963e-10 1
vt 0 0
vt 3.25963e-10 1
vt 1 0
vt 1 1
vt 0 0
vt 3.25963e-10 1
vt 0 0
vt 1 0
vt 1 1
vt 1 0
vt 1 1
vt 3.25963e-10 1
vt 0 0
vt 3.25963e-10 1
vt 1 0
vt 1 1
vt 0 0
vt 1 0
vt 1 1
vt 3.25963e-10 1
vt 0 0
vt 1 0
vt 1 1
vt 3.25963e-10 1
vt 0 0
vt 3.25963e-10 1
vt 1 0
vt 1 1
vt 0 0
vt 3.25963e-10 1
vt 0 0
vt 1 0
vt 1 1
vt 1 0
vt 1 1
vt 3.25963e-10 1
vt 0 0
f -48/-48/-48 -47/-47/-47 -46/-46/-46
f -47/-47/-47 -48/-48/-48 -45/-45/-45
f -44/-44/-44 -43/-43/-43 -42/-42/-42
f -44/-44/-44 -42/-42/-42 -41/-41/-41
f -40/-40/-40 -39/-39/-39 -38/-38/-38
f -40/-40/-40 -38/-38/-38 -37/-37/-37
f -36/-36/-36 -35/-35/-35 -34/-34/-34
f -35/-35/-35 -36/-36/-36 -33/-33/-33
f -32/-32/-32 -31/-31/-31 -30/-30/-30
f -32/-32/-32 -30/-30/-30 -29/-29/-29
f -28/-28/-28 -27/-27/-27 -26/-26/-26
f -28/-28/-28 -26/-26/-26 -25/-25/-25
f -24/-24/-24 -23/-23/-23 -22/-22/-22
f -23/-23/-23 -24/-24/-24 -21/-21/-21
f -20/-20/-20 -19/-19/-19 -18/-18/-18
f -20/-20/-20 -18/-18/-18 -17/-17/-17
f -16/-16/-16 -15/-15/-15 -14/-14/-14
f -16/-16/-16 -14/-14/-14 -13/-13/-13
f -12/-12/-12 -11/-11/-11 -10/-10/-10
f -11/-11/-11 -12/-12/-12 -9/-9/-9
f -8/-8/-8 -7/-7/-7 -6/-6/-6
f -8/-8/-8 -6/-6/-6 -5/-5/-5
f -4/-4/-4 -3/-3/-3 -2/-2/-2
f -4/-4/-4 -2/-2/-2 -1/-1/-1

