# OBJ Export by Luxion KeyShot

mtllib B3.mtl

usemtl B3:color:255:238:34 #1
v -242.18 0 443.23
v -242.18 130 443.23
v -242.18 130 1092.57
v -242.18 0 1092.57
v -242.18 0 1092.57
v -242.18 130 1092.57
v -59.05 130 1092.57
v -59.05 0 1092.57
v -59.05 130 1092.57
v -59.05 0 443.23
v -59.05 130 443.23
v -59.05 0 1092.57
v -59.05 130 443.23
v -242.18 0 443.23
v -242.18 130 443.23
v -59.05 0 443.23
v -59.05 130 443.23
v -242.18 130 1092.57
v -59.05 130 1092.57
v -242.18 130 443.23
v -242.18 0 1092.57
v -59.05 0 1092.57
v -59.05 0 443.23
v -242.18 0 443.23
v -59.05 130 -284.74
v -242.18 0 -284.74
v -242.18 130 -284.74
v -59.05 0 -284.74
v -242.18 0 -284.74
v -242.18 130 -284.74
v -242.18 130 403.76
v -242.18 0 403.76
v -242.18 0 403.76
v -242.18 130 403.76
v -59.05 130 403.76
v -59.05 0 403.76
v -59.05 130 403.76
v -59.05 0 -284.74
v -59.05 130 -284.74
v -59.05 0 403.76
v -59.05 130 403.76
v -242.18 130 403.76
v -242.18 130 -284.74
v -59.05 130 -284.74
v -242.18 0 -284.74
v -59.05 0 -284.74
v -59.05 0 403.76
v -242.18 0 403.76
v -272.79 0 1542.3
v -272.79 110 1542.3
v -272.79 110 1960.16
v -272.79 0 1960.16
v -272.79 0 1960.16
v -272.79 110 1960.16
v 11.71 110 1960.16
v 11.71 0 1960.16
v 11.71 110 1960.16
v 11.71 0 1542.3
v 11.71 110 1542.3
v 11.71 0 1960.16
v 11.71 110 1542.3
v -272.79 0 1542.3
v -272.79 110 1542.3
v 11.71 0 1542.3
v 11.71 110 1542.3
v -272.79 110 1960.16
v 11.71 110 1960.16
v -272.79 110 1542.3
v -272.79 0 1960.16
v 11.71 0 1960.16
v 11.71 0 1542.3
v -272.79 0 1542.3
v -179.44 0 1306.69
v -179.44 100 1306.69
v -179.44 100 1506.73
v -179.44 0 1506.73
v -179.44 0 1506.73
v -179.44 100 1506.73
v -130.54 100 1506.73
v -130.54 0 1506.73
v -130.54 100 1506.73
v -130.54 0 1306.69
v -130.54 100 1306.69
v -130.54 0 1506.73
v -130.54 100 1306.69
v -179.44 0 1306.69
v -179.44 100 1306.69
v -130.54 0 1306.69
v -130.54 100 1306.69
v -179.44 100 1506.73
v -130.54 100 1506.73
v -179.44 100 1306.69
v -179.44 0 1506.73
v -130.54 0 1506.73
v -130.54 0 1306.69
v -179.44 0 1306.69
v -83.76 0 1185.03
v -83.76 100 1185.03
v -83.76 100 1306.69
v -83.76 0 1306.69
v -83.76 0 1306.69
v -83.76 100 1306.69
v -34.3501 100 1306.69
v -34.3501 0 1306.69
v -34.3501 100 1306.69
v -34.3501 0 1185.03
v -34.3501 100 1185.03
v -34.3501 0 1306.69
v -34.3501 100 1185.03
v -83.76 0 1185.03
v -83.76 100 1185.03
v -34.3501 0 1185.03
v -34.3501 100 1185.03
v -83.76 100 1306.69
v -34.3501 100 1306.69
v -83.76 100 1185.03
v -83.76 0 1306.69
v -34.3501 0 1306.69
v -34.3501 0 1185.03
v -83.76 0 1185.03
v -242.18 0 1173.4
v -242.18 100 1173.4
v -242.18 100 1246.07
v -242.18 0 1246.07
v -242.18 0 1246.07
v -242.18 100 1246.07
v -202.94 100 1246.07
v -202.94 0 1246.07
v -202.94 100 1246.07
v -202.94 0 1173.4
v -202.94 100 1173.4
v -202.94 0 1246.07
v -202.94 100 1173.4
v -242.18 0 1173.4
v -242.18 100 1173.4
v -202.94 0 1173.4
v -202.94 100 1173.4
v -242.18 100 1246.07
v -202.94 100 1246.07
v -242.18 100 1173.4
v -242.18 0 1246.07
v -202.94 0 1246.07
v -202.94 0 1173.4
v -242.18 0 1173.4
vn 1 0 0
vn 1 0 0
vn 1 0 0
vn 1 0 0
vn 0 0 -1
vn 0 0 -1
vn 0 0 -1
vn 0 0 -1
vn 1 0 0
vn 1 0 0
vn 1 0 0
vn 1 0 0
vn 0 0 -1
vn 0 0 -1
vn 0 0 -1
vn 0 0 -1
vn 0 1 0
vn 0 1 0
vn 0 1 0
vn 0 1 0
vn 0 1 0
vn 0 1 0
vn 0 1 0
vn 0 1 0
vn 0 0 -1
vn 0 0 -1
vn 0 0 -1
vn 0 0 -1
vn 1 0 0
vn 1 0 0
vn 1 0 0
vn 1 0 0
vn 0 0 -1
vn 0 0 -1
vn 0 0 -1
vn 0 0 -1
vn 1 0 0
vn 1 0 0
vn 1 0 0
vn 1 0 0
vn 0 -1 0
vn 0 -1 0
vn 0 -1 0
vn 0 -1 0
vn 0 -1 0
vn 0 -1 0
vn 0 -1 0
vn 0 -1 0
vn 1 0 0
vn 1 0 0
vn 1 0 0
vn 1 0 0
vn 0 0 -1
vn 0 0 -1
vn 0 0 -1
vn 0 0 -1
vn 1 0 0
vn 1 0 0
vn 1 0 0
vn 1 0 0
vn 0 0 -1
vn 0 0 -1
vn 0 0 -1
vn 0 0 -1
vn 0 1 0
vn 0 1 0
vn 0 1 0
vn 0 1 0
vn 0 1 0
vn 0 1 0
vn 0 1 0
vn 0 1 0
vn 1 0 0
vn 1 0 0
vn 1 0 0
vn 1 0 0
vn 0 0 -1
vn 0 0 -1
vn 0 0 -1
vn 0 0 -1
vn 1 0 0
vn 1 0 0
vn 1 0 0
vn 1 0 0
vn 0 0 -1
vn 0 0 -1
vn 0 0 -1
vn 0 0 -1
vn 0 1 0
vn 0 1 0
vn 0 1 0
vn 0 1 0
vn 0 1 0
vn 0 1 0
vn 0 1 0
vn 0 1 0
vn 1 0 0
vn 1 0 0
vn 1 0 0
vn 1 0 0
vn 0 0 -1
vn 0 0 -1
vn 0 0 -1
vn 0 0 -1
vn 1 0 0
vn 1 0 0
vn 1 0 0
vn 1 0 0
vn 0 0 -1
vn 0 0 -1
vn 0 0 -1
vn 0 0 -1
vn 0 1 0
vn 0 1 0
vn 0 1 0
vn 0 1 0
vn 0 1 0
vn 0 1 0
vn 0 1 0
vn 0 1 0
vn 1 0 0
vn 1 0 0
vn 1 0 0
vn 1 0 0
vn 0 0 -1
vn 0 0 -1
vn 0 0 -1
vn 0 0 -1
vn 1 0 0
vn 1 0 0
vn 1 0 0
vn 1 0 0
vn 0 0 -1
vn 0 0 -1
vn 0 0 -1
vn 0 0 -1
vn 0 1 0
vn 0 1 0
vn 0 1 0
vn 0 1 0
vn 0 1 0
vn 0 1 0
vn 0 1 0
vn 0 1 0
vt 1 0
vt 1 1
vt 3.25963e-10 1
vt 0 0
vt 1 0
vt 1 1
vt 3.25963e-10 1
vt 0 0
vt 3.25963e-10 1
vt 1 0
vt 1 1
vt 0 0
vt 3.25963e-10 1
vt 1 0
vt 1 1
vt 0 0
vt 3.25963e-10 1
vt 1 0
vt 1 1
vt 0 0
vt 1 0
vt 1 1
vt 3.25963e-10 1
vt 0 0
vt 3.25963e-10 1
vt 1 0
vt 1 1
vt 0 0
vt 1 0
vt 1 1
vt 3.25963e-10 1
vt 0 0
vt 1 0
vt 1 1
vt 3.25963e-10 1
vt 0 0
vt 3.25963e-10 1
vt 1 0
vt 1 1
vt 0 0
vt 3.25963e-10 1
vt 0 0
vt 1 0
vt 1 1
vt 1 0
vt 1 1
vt 3.25963e-10 1
vt 0 0
vt 1 0
vt 1 1
vt 3.25963e-10 1
vt 0 0
vt 1 0
vt 1 1
vt 3.25963e-10 1
vt 0 0
vt 3.25963e-10 1
vt 1 0
vt 1 1
vt 0 0
vt 3.25963e-10 1
vt 1 0
vt 1 1
vt 0 0
vt 3.25963e-10 1
vt 1 0
vt 1 1
vt 0 0
vt 1 0
vt 1 1
vt 3.25963e-10 1
vt 0 0
vt 1 0
vt 1 1
vt 3.25963e-10 1
vt 0 0
vt 1 0
vt 1 1
vt 3.25963e-10 1
vt 0 0
vt 3.25963e-10 1
vt 1 0
vt 1 1
vt 0 0
vt 3.25963e-10 1
vt 1 0
vt 1 1
vt 0 0
vt 3.25963e-10 1
vt 1 0
vt 1 1
vt 0 0
vt 1 0
vt 1 1
vt 3.25963e-10 1
vt 0 0
vt 1 0
vt 1 1
vt 3.25963e-10 1
vt 0 0
vt 1 0
vt 1 1
vt 3.25963e-10 1
vt 0 0
vt 3.25963e-10 1
vt 1 0
vt 1 1
vt 0 0
vt 3.25963e-10 1
vt 1 0
vt 1 1
vt 0 0
vt 3.25963e-10 1
vt 1 0
vt 1 1
vt 0 0
vt 1 0
vt 1 1
vt 3.25963e-10 1
vt 0 0
vt 1 0
vt 1 1
vt 3.25963e-10 1
vt 0 0
vt 1 0
vt 1 1
vt 3.25963e-10 1
vt 0 0
vt 3.25963e-10 1
vt 1 0
vt 1 1
vt 0 0
vt 3.25963e-10 1
vt 1 0
vt 1 1
vt 0 0
vt 3.25963e-10 1
vt 1 0
vt 1 1
vt 0 0
vt 1 0
vt 1 1
vt 3.25963e-10 1
vt 0 0
f -144/-144/-144 -143/-143/-143 -142/-142/-142
f -144/-144/-144 -142/-142/-142 -141/-141/-141
f -140/-140/-140 -139/-139/-139 -138/-138/-138
f -140/-140/-140 -138/-138/-138 -137/-137/-137
f -136/-136/-136 -135/-135/-135 -134/-134/-134
f -135/-135/-135 -136/-136/-136 -133/-133/-133
f -132/-132/-132 -131/-131/-131 -130/-130/-130
f -131/-131/-131 -132/-132/-132 -129/-129/-129
f -128/-128/-128 -127/-127/-127 -126/-126/-126
f -127/-127/-127 -128/-128/-128 -125/-125/-125
f -124/-124/-124 -123/-123/-123 -122/-122/-122
f -124/-124/-124 -122/-122/-122 -121/-121/-121
f -120/-120/-120 -119/-119/-119 -118/-118/-118
f -119/-119/-119 -120/-120/-120 -117/-117/-117
f -116/-116/-116 -115/-115/-115 -114/-114/-114
f -116/-116/-116 -114/-114/-114 -113/-113/-113
f -112/-112/-112 -111/-111/-111 -110/-110/-110
f -112/-112/-112 -110/-110/-110 -109/-109/-109
f -108/-108/-108 -107/-107/-107 -106/-106/-106
f -107/-107/-107 -108/-108/-108 -105/-105/-105
f -104/-104/-104 -103/-103/-103 -102/-102/-102
f -104/-104/-104 -102/-102/-102 -101/-101/-101
f -100/-100/-100 -99/-99/-99 -98/-98/-98
f -100/-100/-100 -98/-98/-98 -97/-97/-97
f -96/-96/-96 -95/-95/-95 -94/-94/-94
f -96/-96/-96 -94/-94/-94 -93/-93/-93
f -92/-92/-92 -91/-91/-91 -90/-90/-90
f -92/-92/-92 -90/-90/-90 -89/-89/-89
f -88/-88/-88 -87/-87/-87 -86/-86/-86
f -87/-87/-87 -88/-88/-88 -85/-85/-85
f -84/-84/-84 -83/-83/-83 -82/-82/-82
f -83/-83/-83 -84/-84/-84 -81/-81/-81
f -80/-80/-80 -79/-79/-79 -78/-78/-78
f -79/-79/-79 -80/-80/-80 -77/-77/-77
f -76/-76/-76 -75/-75/-75 -74/-74/-74
f -76/-76/-76 -74/-74/-74 -73/-73/-73
f -72/-72/-72 -71/-71/-71 -70/-70/-70
f -72/-72/-72 -70/-70/-70 -69/-69/-69
f -68/-68/-68 -67/-67/-67 -66/-66/-66
f -68/-68/-68 -66/-66/-66 -65/-65/-65
f -64/-64/-64 -63/-63/-63 -62/-62/-62
f -63/-63/-63 -64/-64/-64 -61/-61/-61
f -60/-60/-60 -59/-59/-59 -58/-58/-58
f -59/-59/-59 -60/-60/-60 -57/-57/-57
f -56/-56/-56 -55/-55/-55 -54/-54/-54
f -55/-55/-55 -56/-56/-56 -53/-53/-53
f -52/-52/-52 -51/-51/-51 -50/-50/-50
f -52/-52/-52 -50/-50/-50 -49/-49/-49
f -48/-48/-48 -47/-47/-47 -46/-46/-46
f -48/-48/-48 -46/-46/-46 -45/-45/-45
f -44/-44/-44 -43/-43/-43 -42/-42/-42
f -44/-44/-44 -42/-42/-42 -41/-41/-41
f -40/-40/-40 -39/-39/-39 -38/-38/-38
f -39/-39/-39 -40/-40/-40 -37/-37/-37
f -36/-36/-36 -35/-35/-35 -34/-34/-34
f -35/-35/-35 -36/-36/-36 -33/-33/-33
f -32/-32/-32 -31/-31/-31 -30/-30/-30
f -31/-31/-31 -32/-32/-32 -29/-29/-29
f -28/-28/-28 -27/-27/-27 -26/-26/-26
f -28/-28/-28 -26/-26/-26 -25/-25/-25
f -24/-24/-24 -23/-23/-23 -22/-22/-22
f -24/-24/-24 -22/-22/-22 -21/-21/-21
f -20/-20/-20 -19/-19/-19 -18/-18/-18
f -20/-20/-20 -18/-18/-18 -17/-17/-17
f -16/-16/-16 -15/-15/-15 -14/-14/-14
f -15/-15/-15 -16/-16/-16 -13/-13/-13
f -12/-12/-12 -11/-11/-11 -10/-10/-10
f -11/-11/-11 -12/-12/-12 -9/-9/-9
f -8/-8/-8 -7/-7/-7 -6/-6/-6
f -7/-7/-7 -8/-8/-8 -5/-5/-5
f -4/-4/-4 -3/-3/-3 -2/-2/-2
f -4/-4/-4 -2/-2/-2 -1/-1/-1

