# OBJ Export by Luxion KeyShot

mtllib B5.mtl

usemtl Paint Gloss Yellow #6
v -820.96 102.266 1925.74
v -820.96 0 2189.13
v -820.96 0 1822.32
v -820.96 102.266 1888.8
v -820.96 200 1822.32
v -820.96 119.648 1888.8
v -820.96 200 2189.13
v -820.96 119.648 1925.74
v -820.96 0 2189.13
v -820.96 200 2189.13
v -577.56 200 2189.13
v -577.56 0 2189.13
v -577.56 0 2189.13
v -577.56 200 2189.13
v -577.56 200 1822.32
v -577.56 0 1822.32
v -577.56 0 1822.32
v -577.56 200 1822.32
v -820.96 200 1822.32
v -820.96 0 1822.32
v -577.56 200 1822.32
v -820.96 200 2189.13
v -577.56 200 2189.13
v -820.96 200 1822.32
v -820.96 0 2189.13
v -577.56 0 2189.13
v -577.56 0 1822.32
v -820.96 0 1822.32
v -830.96 119.648 1888.8
v -830.96 102.266 1888.8
v -820.96 102.266 1888.8
v -820.96 119.648 1888.8
v -820.96 102.266 1888.8
v -830.96 102.266 1925.74
v -820.96 102.266 1925.74
v -830.96 102.266 1888.8
v -820.96 119.648 1925.74
v -830.96 102.266 1925.74
v -830.96 119.648 1925.74
v -820.96 102.266 1925.74
v -820.96 119.648 1925.74
v -830.96 119.648 1888.8
v -820.96 119.648 1888.8
v -830.96 119.648 1925.74
v -830.96 92.069 2174.93
v -830.96 92.069 1836.2
v -830.96 102.266 1925.74
v -830.96 102.266 1888.8
v -830.96 129.705 1836.2
v -830.96 119.648 1888.8
v -830.96 129.705 2174.93
v -830.96 119.648 1925.74
v -883.96 129.705 1836.2
v -883.96 92.069 1836.2
v -830.96 92.069 1836.2
v -830.96 129.705 1836.2
v -830.96 92.069 1836.2
v -883.96 92.069 2174.93
v -830.96 92.069 2174.93
v -883.96 92.069 1836.2
v -830.96 129.705 2174.93
v -883.96 92.069 2174.93
v -883.96 129.705 2174.93
v -830.96 92.069 2174.93
v -830.96 129.705 2174.93
v -883.96 129.705 1836.2
v -830.96 129.705 1836.2
v -883.96 129.705 2174.93
v -883.96 129.705 2174.93
v -883.96 92.069 2174.93
v -883.96 92.069 1836.2
v -883.96 129.705 1836.2
v -713.97 -5 1294.07
v -803.97 -5 1474.07
v -713.97 -5 1474.07
v -803.97 -5 1294.07
v -713.97 -5 896.825
v -803.97 -5 1076.82
v -713.97 -5 1076.82
v -803.97 -5 896.825
v -713.97 -5 1503.74
v -803.97 -5 1683.74
v -713.97 -5 1683.74
v -803.97 -5 1503.74
v -713.97 -5 1105.77
v -803.97 -5 1285.77
v -713.97 -5 1285.77
v -803.97 -5 1105.77
v -593.21 -5 1186.11
v -683.21 -5 1364.12
v -593.21 -5 1364.12
v -683.21 -5 1186.11
v -597.45 -5 1397.28
v -687.45 -5 1575.29
v -597.45 -5 1575.29
v -687.45 -5 1397.28
v -593.21 -5 967.96
v -683.21 -5 1145.97
v -593.21 -5 1145.97
v -683.21 -5 967.96
vn 1 0 0
vn 1 0 0
vn 1 0 0
vn 1 0 0
vn 1 0 0
vn 1 0 0
vn 1 0 0
vn 1 0 0
vn 0 0 -1
vn 0 0 -1
vn 0 0 -1
vn 0 0 -1
vn -1 0 0
vn -1 0 0
vn -1 0 0
vn -1 0 0
vn 0 0 1
vn 0 0 1
vn 0 0 1
vn 0 0 1
vn 0 1 0
vn 0 1 0
vn 0 1 0
vn 0 1 0
vn 0 1 0
vn 0 1 0
vn 0 1 0
vn 0 1 0
vn 0 0 1
vn 0 0 1
vn 0 0 1
vn 0 0 1
vn 0 1 0
vn 0 1 0
vn 0 1 0
vn 0 1 0
vn 0 0 -1
vn 0 0 -1
vn 0 0 -1
vn 0 0 -1
vn 0 -1 0
vn 0 -1 0
vn 0 -1 0
vn 0 -1 0
vn 1 0 0
vn 1 0 0
vn 1 0 3.35634e-16
vn 1 0 3.35634e-16
vn 1 0 0
vn 1 0 0
vn 1 0 0
vn 1 0 0
vn 0 0 1
vn 0 0 1
vn 0 0 1
vn 0 0 1
vn 0 1 0
vn 0 1 0
vn 0 1 0
vn 0 1 0
vn 0 0 -1
vn 0 0 -1
vn 0 0 -1
vn 0 0 -1
vn 0 -1 0
vn 0 -1 0
vn 0 -1 0
vn 0 -1 0
vn 1 0 0
vn 1 0 0
vn 1 0 0
vn 1 0 0
vn 0 1 0
vn 0 1 0
vn 0 1 0
vn 0 1 0
vn 0 1 0
vn 0 1 0
vn 0 1 0
vn 0 1 0
vn 0 1 0
vn 0 1 0
vn 0 1 0
vn 0 1 0
vn 0 1 0
vn 0 1 0
vn 0 1 0
vn 0 1 0
vn 0 1 0
vn 0 1 0
vn 0 1 0
vn 0 1 0
vn 0 1 0
vn 0 1 0
vn 0 1 0
vn 0 1 0
vn 0 1 0
vn 0 1 0
vn 0 1 0
vn 0 1 0
vt 0.718053 0.511332
vt 0 0
vt 1 0
vt 0.818745 0.511332
vt 1 1
vt 0.818745 0.598239
vt 3.25963e-10 1
vt 0.718053 0.598239
vt 1 0
vt 1 1
vt 3.25963e-10 1
vt 0 0
vt 1 0
vt 1 1
vt 3.25963e-10 1
vt 0 0
vt 1 0
vt 1 1
vt 3.25963e-10 1
vt 0 0
vt 3.25963e-10 1
vt 1 0
vt 1 1
vt 0 0
vt 1 0
vt 1 1
vt 3.25963e-10 1
vt 0 0
vt 3.25963e-10 1
vt 0 0
vt 1 0
vt 1 1
vt 3.25963e-10 1
vt 1 0
vt 1 1
vt 0 0
vt 3.25963e-10 1
vt 1 0
vt 1 1
vt 0 0
vt 3.25963e-10 1
vt 1 0
vt 1 1
vt 0 0
vt 0 0
vt 1 0
vt 0.735669 0.270948
vt 0.844713 0.270948
vt 1 1
vt 0.844713 0.732781
vt 3.25963e-10 1
vt 0.735669 0.732781
vt 3.25963e-10 1
vt 0 0
vt 1 0
vt 1 1
vt 3.25963e-10 1
vt 1 0
vt 1 1
vt 0 0
vt 3.25963e-10 1
vt 1 0
vt 1 1
vt 0 0
vt 3.25963e-10 1
vt 1 0
vt 1 1
vt 0 0
vt 3.25963e-10 1
vt 0 0
vt 1 0
vt 1 1
vt 3.25963e-10 1
vt 1 0
vt 1 1
vt 0 0
vt 3.25963e-10 1
vt 1 0
vt 1 1
vt 0 0
vt 3.25963e-10 1
vt 1 0
vt 1 1
vt 0 0
vt 3.25963e-10 1
vt 1 0
vt 1 1
vt 0 0
vt 3.25963e-10 1
vt 1 0
vt 1 1
vt 0 0
vt 3.25963e-10 1
vt 1 0
vt 1 1
vt 0 0
vt 3.25963e-10 1
vt 1 0
vt 1 1
vt 0 0
f -100/-100/-100 -99/-99/-99 -98/-98/-98
f -100/-100/-100 -98/-98/-98 -97/-97/-97
f -98/-98/-98 -96/-96/-96 -97/-97/-97
f -95/-95/-95 -97/-97/-97 -96/-96/-96
f -94/-94/-94 -99/-99/-99 -100/-100/-100
f -96/-96/-96 -94/-94/-94 -93/-93/-93
f -94/-94/-94 -100/-100/-100 -93/-93/-93
f -96/-96/-96 -93/-93/-93 -95/-95/-95
f -92/-92/-92 -91/-91/-91 -90/-90/-90
f -92/-92/-92 -90/-90/-90 -89/-89/-89
f -88/-88/-88 -87/-87/-87 -86/-86/-86
f -88/-88/-88 -86/-86/-86 -85/-85/-85
f -84/-84/-84 -83/-83/-83 -82/-82/-82
f -84/-84/-84 -82/-82/-82 -81/-81/-81
f -80/-80/-80 -79/-79/-79 -78/-78/-78
f -79/-79/-79 -80/-80/-80 -77/-77/-77
f -76/-76/-76 -75/-75/-75 -74/-74/-74
f -76/-76/-76 -74/-74/-74 -73/-73/-73
f -72/-72/-72 -71/-71/-71 -70/-70/-70
f -72/-72/-72 -70/-70/-70 -69/-69/-69
f -68/-68/-68 -67/-67/-67 -66/-66/-66
f -67/-67/-67 -68/-68/-68 -65/-65/-65
f -64/-64/-64 -63/-63/-63 -62/-62/-62
f -63/-63/-63 -64/-64/-64 -61/-61/-61
f -60/-60/-60 -59/-59/-59 -58/-58/-58
f -59/-59/-59 -60/-60/-60 -57/-57/-57
f -56/-56/-56 -55/-55/-55 -54/-54/-54
f -54/-54/-54 -55/-55/-55 -53/-53/-53
f -52/-52/-52 -51/-51/-51 -53/-53/-53
f -50/-50/-50 -49/-49/-49 -52/-52/-52
f -52/-52/-52 -53/-53/-53 -55/-55/-55
f -50/-50/-50 -56/-56/-56 -54/-54/-54
f -52/-52/-52 -49/-49/-49 -51/-51/-51
f -50/-50/-50 -54/-54/-54 -49/-49/-49
f -48/-48/-48 -47/-47/-47 -46/-46/-46
f -48/-48/-48 -46/-46/-46 -45/-45/-45
f -44/-44/-44 -43/-43/-43 -42/-42/-42
f -43/-43/-43 -44/-44/-44 -41/-41/-41
f -40/-40/-40 -39/-39/-39 -38/-38/-38
f -39/-39/-39 -40/-40/-40 -37/-37/-37
f -36/-36/-36 -35/-35/-35 -34/-34/-34
f -35/-35/-35 -36/-36/-36 -33/-33/-33
f -32/-32/-32 -31/-31/-31 -30/-30/-30
f -32/-32/-32 -30/-30/-30 -29/-29/-29
f -28/-28/-28 -27/-27/-27 -26/-26/-26
f -27/-27/-27 -28/-28/-28 -25/-25/-25
f -24/-24/-24 -23/-23/-23 -22/-22/-22
f -23/-23/-23 -24/-24/-24 -21/-21/-21
f -20/-20/-20 -19/-19/-19 -18/-18/-18
f -19/-19/-19 -20/-20/-20 -17/-17/-17
f -16/-16/-16 -15/-15/-15 -14/-14/-14
f -15/-15/-15 -16/-16/-16 -13/-13/-13
f -12/-12/-12 -11/-11/-11 -10/-10/-10
f -11/-11/-11 -12/-12/-12 -9/-9/-9
f -8/-8/-8 -7/-7/-7 -6/-6/-6
f -7/-7/-7 -8/-8/-8 -5/-5/-5
f -4/-4/-4 -3/-3/-3 -2/-2/-2
f -3/-3/-3 -4/-4/-4 -1/-1/-1
usemtl Paint Gloss Yellow #7
v -713.97 195 1294.07
v -803.97 195 1474.07
v -713.97 195 1474.07
v -803.97 195 1294.07
v -713.97 -5 1294.07
v -713.97 195 1294.07
v -803.97 195 1294.07
v -803.97 -5 1294.07
v -713.97 -5 1474.07
v -713.97 195 1474.07
v -713.97 195 1294.07
v -713.97 -5 1294.07
v -803.97 -5 1474.07
v -803.97 195 1474.07
v -713.97 195 1474.07
v -713.97 -5 1474.07
v -803.97 -5 1294.07
v -803.97 195 1294.07
v -803.97 195 1474.07
v -803.97 -5 1474.07
v -713.97 195 896.825
v -803.97 195 1076.82
v -713.97 195 1076.82
v -803.97 195 896.825
v -713.97 -5 896.825
v -713.97 195 896.825
v -803.97 195 896.825
v -803.97 -5 896.825
v -713.97 -5 1076.82
v -713.97 195 1076.82
v -713.97 195 896.825
v -713.97 -5 896.825
v -803.97 -5 1076.82
v -803.97 195 1076.82
v -713.97 195 1076.82
v -713.97 -5 1076.82
v -803.97 -5 896.825
v -803.97 195 896.825
v -803.97 195 1076.82
v -803.97 -5 1076.82
v -713.97 195 1503.74
v -803.97 195 1683.74
v -713.97 195 1683.74
v -803.97 195 1503.74
v -713.97 -5 1503.74
v -713.97 195 1503.74
v -803.97 195 1503.74
v -803.97 -5 1503.74
v -713.97 -5 1683.74
v -713.97 195 1683.74
v -713.97 195 1503.74
v -713.97 -5 1503.74
v -803.97 -5 1683.74
v -803.97 195 1683.74
v -713.97 195 1683.74
v -713.97 -5 1683.74
v -803.97 -5 1503.74
v -803.97 195 1503.74
v -803.97 195 1683.74
v -803.97 -5 1683.74
v -713.97 195 1105.77
v -803.97 195 1285.77
v -713.97 195 1285.77
v -803.97 195 1105.77
v -713.97 -5 1105.77
v -713.97 195 1105.77
v -803.97 195 1105.77
v -803.97 -5 1105.77
v -713.97 -5 1285.77
v -713.97 195 1285.77
v -713.97 195 1105.77
v -713.97 -5 1105.77
v -803.97 -5 1285.77
v -803.97 195 1285.77
v -713.97 195 1285.77
v -713.97 -5 1285.77
v -803.97 -5 1105.77
v -803.97 195 1105.77
v -803.97 195 1285.77
v -803.97 -5 1285.77
v -593.21 195 1186.11
v -683.21 195 1364.12
v -593.21 195 1364.12
v -683.21 195 1186.11
v -593.21 -5 1186.11
v -593.21 195 1186.11
v -683.21 195 1186.11
v -683.21 -5 1186.11
v -593.21 -5 1364.12
v -593.21 195 1364.12
v -593.21 195 1186.11
v -593.21 -5 1186.11
v -683.21 -5 1364.12
v -683.21 195 1364.12
v -593.21 195 1364.12
v -593.21 -5 1364.12
v -683.21 -5 1186.11
v -683.21 195 1186.11
v -683.21 195 1364.12
v -683.21 -5 1364.12
v -597.45 195 1397.28
v -687.45 195 1575.29
v -597.45 195 1575.29
v -687.45 195 1397.28
v -597.45 -5 1397.28
v -597.45 195 1397.28
v -687.45 195 1397.28
v -687.45 -5 1397.28
v -597.45 -5 1575.29
v -597.45 195 1575.29
v -597.45 195 1397.28
v -597.45 -5 1397.28
v -687.45 -5 1575.29
v -687.45 195 1575.29
v -597.45 195 1575.29
v -597.45 -5 1575.29
v -687.45 -5 1397.28
v -687.45 195 1397.28
v -687.45 195 1575.29
v -687.45 -5 1575.29
v -593.21 195 967.96
v -683.21 195 1145.97
v -593.21 195 1145.97
v -683.21 195 967.96
v -593.21 -5 967.96
v -593.21 195 967.96
v -683.21 195 967.96
v -683.21 -5 967.96
v -593.21 -5 1145.97
v -593.21 195 1145.97
v -593.21 195 967.96
v -593.21 -5 967.96
v -683.21 -5 1145.97
v -683.21 195 1145.97
v -593.21 195 1145.97
v -593.21 -5 1145.97
v -683.21 -5 967.96
v -683.21 195 967.96
v -683.21 195 1145.97
v -683.21 -5 1145.97
vn 0 1 0
vn 0 1 0
vn 0 1 0
vn 0 1 0
vn 0 0 1
vn 0 0 1
vn 0 0 1
vn 0 0 1
vn -1 0 0
vn -1 0 0
vn -1 0 0
vn -1 0 0
vn 0 0 -1
vn 0 0 -1
vn 0 0 -1
vn 0 0 -1
vn 1 0 0
vn 1 0 0
vn 1 0 0
vn 1 0 0
vn 0 1 0
vn 0 1 0
vn 0 1 0
vn 0 1 0
vn 0 0 1
vn 0 0 1
vn 0 0 1
vn 0 0 1
vn -1 0 0
vn -1 0 0
vn -1 0 0
vn -1 0 0
vn 0 0 -1
vn 0 0 -1
vn 0 0 -1
vn 0 0 -1
vn 1 0 0
vn 1 0 0
vn 1 0 0
vn 1 0 0
vn 0 1 0
vn 0 1 0
vn 0 1 0
vn 0 1 0
vn 0 0 1
vn 0 0 1
vn 0 0 1
vn 0 0 1
vn -1 0 0
vn -1 0 0
vn -1 0 0
vn -1 0 0
vn 0 0 -1
vn 0 0 -1
vn 0 0 -1
vn 0 0 -1
vn 1 0 0
vn 1 0 0
vn 1 0 0
vn 1 0 0
vn 0 1 0
vn 0 1 0
vn 0 1 0
vn 0 1 0
vn 0 0 1
vn 0 0 1
vn 0 0 1
vn 0 0 1
vn -1 0 0
vn -1 0 0
vn -1 0 0
vn -1 0 0
vn 0 0 -1
vn 0 0 -1
vn 0 0 -1
vn 0 0 -1
vn 1 0 0
vn 1 0 0
vn 1 0 0
vn 1 0 0
vn 0 1 0
vn 0 1 0
vn 0 1 0
vn 0 1 0
vn 0 0 1
vn 0 0 1
vn 0 0 1
vn 0 0 1
vn -1 0 0
vn -1 0 0
vn -1 0 0
vn -1 0 0
vn 0 0 -1
vn 0 0 -1
vn 0 0 -1
vn 0 0 -1
vn 1 0 0
vn 1 0 0
vn 1 0 0
vn 1 0 0
vn 0 1 0
vn 0 1 0
vn 0 1 0
vn 0 1 0
vn 0 0 1
vn 0 0 1
vn 0 0 1
vn 0 0 1
vn -1 0 0
vn -1 0 0
vn -1 0 0
vn -1 0 0
vn 0 0 -1
vn 0 0 -1
vn 0 0 -1
vn 0 0 -1
vn 1 0 0
vn 1 0 0
vn 1 0 0
vn 1 0 0
vn 0 1 0
vn 0 1 0
vn 0 1 0
vn 0 1 0
vn 0 0 1
vn 0 0 1
vn 0 0 1
vn 0 0 1
vn -1 0 0
vn -1 0 0
vn -1 0 0
vn -1 0 0
vn 0 0 -1
vn 0 0 -1
vn 0 0 -1
vn 0 0 -1
vn 1 0 0
vn 1 0 0
vn 1 0 0
vn 1 0 0
vt 3.25963e-10 1
vt 1 0
vt 1 1
vt 0 0
vt 1 0
vt 1 1
vt 3.25963e-10 1
vt 0 0
vt 1 0
vt 1 1
vt 3.25963e-10 1
vt 0 0
vt 1 0
vt 1 1
vt 3.25963e-10 1
vt 0 0
vt 1 0
vt 1 1
vt 3.25963e-10 1
vt 0 0
vt 3.25963e-10 1
vt 1 0
vt 1 1
vt 0 0
vt 1 0
vt 1 1
vt 3.25963e-10 1
vt 0 0
vt 1 0
vt 1 1
vt 3.25963e-10 1
vt 0 0
vt 1 0
vt 1 1
vt 3.25963e-10 1
vt 0 0
vt 1 0
vt 1 1
vt 3.25963e-10 1
vt 0 0
vt 3.25963e-10 1
vt 1 0
vt 1 1
vt 0 0
vt 1 0
vt 1 1
vt 3.25963e-10 1
vt 0 0
vt 1 0
vt 1 1
vt 3.25963e-10 1
vt 0 0
vt 1 0
vt 1 1
vt 3.25963e-10 1
vt 0 0
vt 1 0
vt 1 1
vt 3.25963e-10 1
vt 0 0
vt 3.25963e-10 1
vt 1 0
vt 1 1
vt 0 0
vt 1 0
vt 1 1
vt 3.25963e-10 1
vt 0 0
vt 1 0
vt 1 1
vt 3.25963e-10 1
vt 0 0
vt 1 0
vt 1 1
vt 3.25963e-10 1
vt 0 0
vt 1 0
vt 1 1
vt 3.25963e-10 1
vt 0 0
vt 3.25963e-10 1
vt 1 0
vt 1 1
vt 0 0
vt 1 0
vt 1 1
vt 3.25963e-10 1
vt 0 0
vt 1 0
vt 1 1
vt 3.25963e-10 1
vt 0 0
vt 1 0
vt 1 1
vt 3.25963e-10 1
vt 0 0
vt 1 0
vt 1 1
vt 3.25963e-10 1
vt 0 0
vt 3.25963e-10 1
vt 1 0
vt 1 1
vt 0 0
vt 1 0
vt 1 1
vt 3.25963e-10 1
vt 0 0
vt 1 0
vt 1 1
vt 3.25963e-10 1
vt 0 0
vt 1 0
vt 1 1
vt 3.25963e-10 1
vt 0 0
vt 1 0
vt 1 1
vt 3.25963e-10 1
vt 0 0
vt 3.25963e-10 1
vt 1 0
vt 1 1
vt 0 0
vt 1 0
vt 1 1
vt 3.25963e-10 1
vt 0 0
vt 1 0
vt 1 1
vt 3.25963e-10 1
vt 0 0
vt 1 0
vt 1 1
vt 3.25963e-10 1
vt 0 0
vt 1 0
vt 1 1
vt 3.25963e-10 1
vt 0 0
f -140/-140/-140 -139/-139/-139 -138/-138/-138
f -139/-139/-139 -140/-140/-140 -137/-137/-137
f -136/-136/-136 -135/-135/-135 -134/-134/-134
f -136/-136/-136 -134/-134/-134 -133/-133/-133
f -132/-132/-132 -131/-131/-131 -130/-130/-130
f -132/-132/-132 -130/-130/-130 -129/-129/-129
f -128/-128/-128 -127/-127/-127 -126/-126/-126
f -128/-128/-128 -126/-126/-126 -125/-125/-125
f -124/-124/-124 -123/-123/-123 -122/-122/-122
f -124/-124/-124 -122/-122/-122 -121/-121/-121
f -120/-120/-120 -119/-119/-119 -118/-118/-118
f -119/-119/-119 -120/-120/-120 -117/-117/-117
f -116/-116/-116 -115/-115/-115 -114/-114/-114
f -116/-116/-116 -114/-114/-114 -113/-113/-113
f -112/-112/-112 -111/-111/-111 -110/-110/-110
f -112/-112/-112 -110/-110/-110 -109/-109/-109
f -108/-108/-108 -107/-107/-107 -106/-106/-106
f -108/-108/-108 -106/-106/-106 -105/-105/-105
f -104/-104/-104 -103/-103/-103 -102/-102/-102
f -104/-104/-104 -102/-102/-102 -101/-101/-101
f -100/-100/-100 -99/-99/-99 -98/-98/-98
f -99/-99/-99 -100/-100/-100 -97/-97/-97
f -96/-96/-96 -95/-95/-95 -94/-94/-94
f -96/-96/-96 -94/-94/-94 -93/-93/-93
f -92/-92/-92 -91/-91/-91 -90/-90/-90
f -92/-92/-92 -90/-90/-90 -89/-89/-89
f -88/-88/-88 -87/-87/-87 -86/-86/-86
f -88/-88/-88 -86/-86/-86 -85/-85/-85
f -84/-84/-84 -83/-83/-83 -82/-82/-82
f -84/-84/-84 -82/-82/-82 -81/-81/-81
f -80/-80/-80 -79/-79/-79 -78/-78/-78
f -79/-79/-79 -80/-80/-80 -77/-77/-77
f -76/-76/-76 -75/-75/-75 -74/-74/-74
f -76/-76/-76 -74/-74/-74 -73/-73/-73
f -72/-72/-72 -71/-71/-71 -70/-70/-70
f -72/-72/-72 -70/-70/-70 -69/-69/-69
f -68/-68/-68 -67/-67/-67 -66/-66/-66
f -68/-68/-68 -66/-66/-66 -65/-65/-65
f -64/-64/-64 -63/-63/-63 -62/-62/-62
f -64/-64/-64 -62/-62/-62 -61/-61/-61
f -60/-60/-60 -59/-59/-59 -58/-58/-58
f -59/-59/-59 -60/-60/-60 -57/-57/-57
f -56/-56/-56 -55/-55/-55 -54/-54/-54
f -56/-56/-56 -54/-54/-54 -53/-53/-53
f -52/-52/-52 -51/-51/-51 -50/-50/-50
f -52/-52/-52 -50/-50/-50 -49/-49/-49
f -48/-48/-48 -47/-47/-47 -46/-46/-46
f -48/-48/-48 -46/-46/-46 -45/-45/-45
f -44/-44/-44 -43/-43/-43 -42/-42/-42
f -44/-44/-44 -42/-42/-42 -41/-41/-41
f -40/-40/-40 -39/-39/-39 -38/-38/-38
f -39/-39/-39 -40/-40/-40 -37/-37/-37
f -36/-36/-36 -35/-35/-35 -34/-34/-34
f -36/-36/-36 -34/-34/-34 -33/-33/-33
f -32/-32/-32 -31/-31/-31 -30/-30/-30
f -32/-32/-32 -30/-30/-30 -29/-29/-29
f -28/-28/-28 -27/-27/-27 -26/-26/-26
f -28/-28/-28 -26/-26/-26 -25/-25/-25
f -24/-24/-24 -23/-23/-23 -22/-22/-22
f -24/-24/-24 -22/-22/-22 -21/-21/-21
f -20/-20/-20 -19/-19/-19 -18/-18/-18
f -19/-19/-19 -20/-20/-20 -17/-17/-17
f -16/-16/-16 -15/-15/-15 -14/-14/-14
f -16/-16/-16 -14/-14/-14 -13/-13/-13
f -12/-12/-12 -11/-11/-11 -10/-10/-10
f -12/-12/-12 -10/-10/-10 -9/-9/-9
f -8/-8/-8 -7/-7/-7 -6/-6/-6
f -8/-8/-8 -6/-6/-6 -5/-5/-5
f -4/-4/-4 -3/-3/-3 -2/-2/-2
f -4/-4/-4 -2/-2/-2 -1/-1/-1

