# OBJ Export by Luxion KeyShot

mtllib B2.mtl

usemtl B2:color:255:238:34
v -501.814 103.477 -514.7
v -679.96 -32.1056 -514.7
v -683.987 97.8321 -514.7
v -497.788 -26.4609 -514.7
v -679.96 -32.1056 -514.7
v -683.987 97.8321 -514.7
v -683.987 97.8321 0.95966
v -679.96 -32.1056 0.95966
v -679.96 -32.1056 0.95966
v -683.987 97.8321 0.95966
v -501.814 103.477 0.95966
v -497.788 -26.4609 0.95966
v -501.814 103.477 0.95966
v -497.788 -26.4609 -514.7
v -501.814 103.477 -514.7
v -497.788 -26.4609 0.95966
v -501.814 103.477 0.95966
v -683.987 97.8321 0.95966
v -683.987 97.8321 -514.7
v -501.814 103.477 -514.7
v -679.96 -32.1056 -514.7
v -497.788 -26.4609 -514.7
v -497.788 -26.4609 0.95966
v -679.96 -32.1056 0.95966
v -501.195 83.4864 152.1
v -679.96 -32.1056 152.1
v -683.367 77.8417 152.1
v -497.788 -26.4609 152.1
v -679.96 -32.1056 152.1
v -683.367 77.8417 152.1
v -683.367 77.8417 503.282
v -679.96 -32.1056 503.282
v -679.96 -32.1056 503.282
v -683.367 77.8417 503.282
v -501.195 83.4864 503.282
v -497.788 -26.4609 503.282
v -501.195 83.4864 503.282
v -497.788 -26.4609 152.1
v -501.195 83.4864 152.1
v -497.788 -26.4609 503.282
v -501.195 83.4864 503.282
v -683.367 77.8417 503.282
v -683.367 77.8417 152.1
v -501.195 83.4864 152.1
v -679.96 -32.1056 152.1
v -497.788 -26.4609 152.1
v -497.788 -26.4609 503.282
v -679.96 -32.1056 503.282
vn 0 0 -1
vn 0 0 -1
vn 0 0 -1
vn 0 0 -1
vn 0.99952 0.0309705 0
vn 0.99952 0.0309705 0
vn 0.99952 0.0309705 0
vn 0.99952 0.0309705 0
vn 0 0 -1
vn 0 0 -1
vn 0 0 -1
vn 0 0 -1
vn 0.99952 0.0309705 0
vn 0.99952 0.0309705 0
vn 0.99952 0.0309705 0
vn 0.99952 0.0309705 0
vn 0.0309705 -0.99952 0
vn 0.0309705 -0.99952 0
vn 0.0309705 -0.99952 0
vn 0.0309705 -0.99952 0
vn 0.0309705 -0.99952 0
vn 0.0309705 -0.99952 0
vn 0.0309705 -0.99952 0
vn 0.0309705 -0.99952 0
vn 0 0 -1
vn 0 0 -1
vn 0 0 -1
vn 0 0 -1
vn 0.99952 0.0309705 0
vn 0.99952 0.0309705 0
vn 0.99952 0.0309705 0
vn 0.99952 0.0309705 0
vn 0 0 -1
vn 0 0 -1
vn 0 0 -1
vn 0 0 -1
vn 0.99952 0.0309705 0
vn 0.99952 0.0309705 0
vn 0.99952 0.0309705 0
vn 0.99952 0.0309705 0
vn 0.0309705 -0.99952 0
vn 0.0309705 -0.99952 0
vn 0.0309705 -0.99952 0
vn 0.0309705 -0.99952 0
vn 0.0309705 -0.99952 0
vn 0.0309705 -0.99952 0
vn 0.0309705 -0.99952 0
vn 0.0309705 -0.99952 0
vt 3.25963e-10 1
vt 1 0
vt 1 1
vt 0 0
vt 1 0
vt 1 1
vt 3.25963e-10 1
vt 0 0
vt 1 0
vt 1 1
vt 3.25963e-10 1
vt 0 0
vt 3.25963e-10 1
vt 1 0
vt 1 1
vt 0 0
vt 3.25963e-10 1
vt 0 0
vt 1 0
vt 1 1
vt 1 0
vt 1 1
vt 3.25963e-10 1
vt 0 0
vt 3.25963e-10 1
vt 1 0
vt 1 1
vt 0 0
vt 1 0
vt 1 1
vt 3.25963e-10 1
vt 0 0
vt 1 0
vt 1 1
vt 3.25963e-10 1
vt 0 0
vt 3.25963e-10 1
vt 1 0
vt 1 1
vt 0 0
vt 3.25963e-10 1
vt 0 0
vt 1 0
vt 1 1
vt 1 0
vt 1 1
vt 3.25963e-10 1
vt 0 0
f -48/-48/-48 -47/-47/-47 -46/-46/-46
f -47/-47/-47 -48/-48/-48 -45/-45/-45
f -44/-44/-44 -43/-43/-43 -42/-42/-42
f -44/-44/-44 -42/-42/-42 -41/-41/-41
f -40/-40/-40 -39/-39/-39 -38/-38/-38
f -40/-40/-40 -38/-38/-38 -37/-37/-37
f -36/-36/-36 -35/-35/-35 -34/-34/-34
f -35/-35/-35 -36/-36/-36 -33/-33/-33
f -32/-32/-32 -31/-31/-31 -30/-30/-30
f -32/-32/-32 -30/-30/-30 -29/-29/-29
f -28/-28/-28 -27/-27/-27 -26/-26/-26
f -28/-28/-28 -26/-26/-26 -25/-25/-25
f -24/-24/-24 -23/-23/-23 -22/-22/-22
f -23/-23/-23 -24/-24/-24 -21/-21/-21
f -20/-20/-20 -19/-19/-19 -18/-18/-18
f -20/-20/-20 -18/-18/-18 -17/-17/-17
f -16/-16/-16 -15/-15/-15 -14/-14/-14
f -16/-16/-16 -14/-14/-14 -13/-13/-13
f -12/-12/-12 -11/-11/-11 -10/-10/-10
f -11/-11/-11 -12/-12/-12 -9/-9/-9
f -8/-8/-8 -7/-7/-7 -6/-6/-6
f -8/-8/-8 -6/-6/-6 -5/-5/-5
f -4/-4/-4 -3/-3/-3 -2/-2/-2
f -4/-4/-4 -2/-2/-2 -1/-1/-1

