# OBJ Export by Luxion KeyShot

mtllib RS2.mtl

usemtl RS2:color:139:45:45
v -7191.11 0 1276.49
v -7191.11 120 1276.49
v -7191.11 120 1983.6
v -7191.11 0 1983.6
v -7191.11 0 1983.6
v -7191.11 120 1983.6
v -6948.04 120 1983.6
v -6948.04 0 1983.6
v -6948.04 0 1983.6
v -6948.04 120 1983.6
v -6948.04 120 1276.49
v -6948.04 0 1276.49
v -6948.04 0 1276.49
v -6948.04 120 1276.49
v -7191.11 120 1276.49
v -7191.11 0 1276.49
v -6948.04 120 1276.49
v -7191.11 120 1983.6
v -6948.04 120 1983.6
v -7191.11 120 1276.49
v -7191.11 0 1983.6
v -6948.04 0 1983.6
v -6948.04 0 1276.49
v -7191.11 0 1276.49
v -7103.04 0 926.044
v -7103.04 50 926.044
v -7103.04 50 1049.89
v -7103.04 0 1049.89
v -7103.04 0 1049.89
v -7103.04 50 1049.89
v -6979.18 50 1049.89
v -6979.18 0 1049.89
v -6979.18 0 1049.89
v -6979.18 50 1049.89
v -6979.18 50 926.044
v -6979.18 0 926.044
v -6979.18 0 926.044
v -6979.18 50 926.044
v -7103.04 50 926.044
v -7103.04 0 926.044
v -6979.18 50 926.044
v -7103.04 50 1049.89
v -6979.18 50 1049.89
v -7103.04 50 926.044
v -7103.04 0 1049.89
v -6979.18 0 1049.89
v -6979.18 0 926.044
v -7103.04 0 926.044
vn 1 0 0
vn 1 0 0
vn 1 0 0
vn 1 0 0
vn 0 0 -1
vn 0 0 -1
vn 0 0 -1
vn 0 0 -1
vn -1 0 0
vn -1 0 0
vn -1 0 0
vn -1 0 0
vn 0 0 1
vn 0 0 1
vn 0 0 1
vn 0 0 1
vn 0 1 0
vn 0 1 0
vn 0 1 0
vn 0 1 0
vn 0 1 0
vn 0 1 0
vn 0 1 0
vn 0 1 0
vn 1 0 0
vn 1 0 0
vn 1 0 0
vn 1 0 0
vn 0 0 -1
vn 0 0 -1
vn 0 0 -1
vn 0 0 -1
vn -1 0 0
vn -1 0 0
vn -1 0 0
vn -1 0 0
vn 0 0 1
vn 0 0 1
vn 0 0 1
vn 0 0 1
vn 0 1 0
vn 0 1 0
vn 0 1 0
vn 0 1 0
vn 0 1 0
vn 0 1 0
vn 0 1 0
vn 0 1 0
vt 1 0
vt 1 1
vt 3.25963e-10 1
vt 0 0
vt 1 0
vt 1 1
vt 3.25963e-10 1
vt 0 0
vt 1 0
vt 1 1
vt 3.25963e-10 1
vt 0 0
vt 1 0
vt 1 1
vt 3.25963e-10 1
vt 0 0
vt 3.25963e-10 1
vt 1 0
vt 1 1
vt 0 0
vt 1 0
vt 1 1
vt 3.25963e-10 1
vt 0 0
vt 1 0
vt 1 1
vt 3.25963e-10 1
vt 0 0
vt 1 0
vt 1 1
vt 3.25963e-10 1
vt 0 0
vt 1 0
vt 1 1
vt 3.25963e-10 1
vt 0 0
vt 1 0
vt 1 1
vt 3.25963e-10 1
vt 0 0
vt 3.25963e-10 1
vt 1 0
vt 1 1
vt 0 0
vt 1 0
vt 1 1
vt 3.25963e-10 1
vt 0 0
f -48/-48/-48 -47/-47/-47 -46/-46/-46
f -48/-48/-48 -46/-46/-46 -45/-45/-45
f -44/-44/-44 -43/-43/-43 -42/-42/-42
f -44/-44/-44 -42/-42/-42 -41/-41/-41
f -40/-40/-40 -39/-39/-39 -38/-38/-38
f -40/-40/-40 -38/-38/-38 -37/-37/-37
f -36/-36/-36 -35/-35/-35 -34/-34/-34
f -36/-36/-36 -34/-34/-34 -33/-33/-33
f -32/-32/-32 -31/-31/-31 -30/-30/-30
f -31/-31/-31 -32/-32/-32 -29/-29/-29
f -28/-28/-28 -27/-27/-27 -26/-26/-26
f -28/-28/-28 -26/-26/-26 -25/-25/-25
f -24/-24/-24 -23/-23/-23 -22/-22/-22
f -24/-24/-24 -22/-22/-22 -21/-21/-21
f -20/-20/-20 -19/-19/-19 -18/-18/-18
f -20/-20/-20 -18/-18/-18 -17/-17/-17
f -16/-16/-16 -15/-15/-15 -14/-14/-14
f -16/-16/-16 -14/-14/-14 -13/-13/-13
f -12/-12/-12 -11/-11/-11 -10/-10/-10
f -12/-12/-12 -10/-10/-10 -9/-9/-9
f -8/-8/-8 -7/-7/-7 -6/-6/-6
f -7/-7/-7 -8/-8/-8 -5/-5/-5
f -4/-4/-4 -3/-3/-3 -2/-2/-2
f -4/-4/-4 -2/-2/-2 -1/-1/-1

