# OBJ Export by Luxion KeyShot

mtllib B6.mtl

usemtl B6:color:255:238:34
v -326.761 130 -1913.98
v -541.893 0 -1913.98
v -541.893 130 -1913.98
v -326.761 0 -1913.98
v -541.893 0 -1913.98
v -541.893 130 -1913.98
v -541.893 130 -536.666
v -541.893 0 -536.666
v -541.893 0 -536.666
v -541.893 130 -536.666
v -326.761 130 -536.666
v -326.761 0 -536.666
v -326.761 130 -536.666
v -326.761 0 -1913.98
v -326.761 130 -1913.98
v -326.761 0 -536.666
v -326.761 130 -536.666
v -541.893 130 -536.666
v -541.893 130 -1913.98
v -326.761 130 -1913.98
v -541.893 0 -1913.98
v -326.761 0 -1913.98
v -326.761 0 -536.666
v -541.893 0 -536.666
v -541.893 0 -204.085
v -541.893 110 -204.085
v -541.893 110 358.954
v -541.893 0 358.954
v -541.893 0 358.954
v -541.893 110 358.954
v -298.466 110 358.954
v -298.466 0 358.954
v -298.466 110 358.954
v -298.466 0 -204.085
v -298.466 110 -204.085
v -298.466 0 358.954
v -298.466 110 -204.085
v -541.893 0 -204.085
v -541.893 110 -204.085
v -298.466 0 -204.085
v -298.466 110 -204.085
v -541.893 110 358.954
v -298.466 110 358.954
v -541.893 110 -204.085
v -541.893 0 358.954
v -298.466 0 358.954
v -298.466 0 -204.085
v -541.893 0 -204.085
v -273.582 100 -400.24
v -326.761 0 -400.24
v -326.761 100 -400.24
v -273.582 0 -400.24
v -326.761 0 -400.24
v -326.761 100 -400.24
v -326.761 100 -224.536
v -326.761 0 -224.536
v -326.761 0 -224.536
v -326.761 100 -224.536
v -273.582 100 -224.536
v -273.582 0 -224.536
v -273.582 100 -224.536
v -273.582 0 -400.24
v -273.582 100 -400.24
v -273.582 0 -224.536
v -273.582 100 -224.536
v -326.761 100 -224.536
v -326.761 100 -400.24
v -273.582 100 -400.24
v -326.761 0 -400.24
v -273.582 0 -400.24
v -273.582 0 -224.536
v -326.761 0 -224.536
v -468.281 0 -400.24
v -468.281 100 -400.24
v -468.281 100 -260.152
v -468.281 0 -260.152
v -468.281 0 -260.152
v -468.281 100 -260.152
v -389.927 100 -260.152
v -389.927 0 -260.152
v -389.927 100 -260.152
v -389.927 0 -400.24
v -389.927 100 -400.24
v -389.927 0 -260.152
v -389.927 100 -400.24
v -468.281 0 -400.24
v -468.281 100 -400.24
v -389.927 0 -400.24
v -389.927 100 -400.24
v -468.281 100 -260.152
v -389.927 100 -260.152
v -468.281 100 -400.24
v -468.281 0 -260.152
v -389.927 0 -260.152
v -389.927 0 -400.24
v -468.281 0 -400.24
vn 0 0 -1
vn 0 0 -1
vn 0 0 -1
vn 0 0 -1
vn 1 -0 0
vn 1 -0 0
vn 1 -0 0
vn 1 -0 0
vn 0 0 -1
vn 0 0 -1
vn 0 0 -1
vn 0 0 -1
vn 1 -0 0
vn 1 -0 0
vn 1 -0 0
vn 1 -0 0
vn 0 -1 0
vn 0 -1 0
vn 0 -1 0
vn 0 -1 0
vn 0 -1 0
vn 0 -1 0
vn 0 -1 0
vn 0 -1 0
vn 1 -0 0
vn 1 -0 0
vn 1 -0 0
vn 1 -0 0
vn 0 0 -1
vn 0 0 -1
vn 0 0 -1
vn 0 0 -1
vn 1 -0 0
vn 1 -0 0
vn 1 -0 0
vn 1 -0 0
vn 0 0 -1
vn 0 0 -1
vn 0 0 -1
vn 0 0 -1
vn 0 1 0
vn 0 1 0
vn 0 1 0
vn 0 1 0
vn 0 1 0
vn 0 1 0
vn 0 1 0
vn 0 1 0
vn 0 0 -1
vn 0 0 -1
vn 0 0 -1
vn 0 0 -1
vn 1 -0 0
vn 1 -0 0
vn 1 -0 0
vn 1 -0 0
vn 0 0 -1
vn 0 0 -1
vn 0 0 -1
vn 0 0 -1
vn 1 -0 0
vn 1 -0 0
vn 1 -0 0
vn 1 -0 0
vn 0 -1 0
vn 0 -1 0
vn 0 -1 0
vn 0 -1 0
vn 0 -1 0
vn 0 -1 0
vn 0 -1 0
vn 0 -1 0
vn 1 -0 0
vn 1 -0 0
vn 1 -0 0
vn 1 -0 0
vn 0 0 -1
vn 0 0 -1
vn 0 0 -1
vn 0 0 -1
vn 1 -0 0
vn 1 -0 0
vn 1 -0 0
vn 1 -0 0
vn 0 0 -1
vn 0 0 -1
vn 0 0 -1
vn 0 0 -1
vn 0 1 0
vn 0 1 0
vn 0 1 0
vn 0 1 0
vn 0 1 0
vn 0 1 0
vn 0 1 0
vn 0 1 0
vt 3.25963e-010 1
vt 1 0
vt 1 1
vt 0 0
vt 1 0
vt 1 1
vt 3.25963e-010 1
vt 0 0
vt 1 0
vt 1 1
vt 3.25963e-010 1
vt 0 0
vt 3.25963e-010 1
vt 1 0
vt 1 1
vt 0 0
vt 3.25963e-010 1
vt 0 0
vt 1 0
vt 1 1
vt 1 0
vt 1 1
vt 3.25963e-010 1
vt 0 0
vt 1 0
vt 1 1
vt 3.25963e-010 1
vt 0 0
vt 1 0
vt 1 1
vt 3.25963e-010 1
vt 0 0
vt 3.25963e-010 1
vt 1 0
vt 1 1
vt 0 0
vt 3.25963e-010 1
vt 1 0
vt 1 1
vt 0 0
vt 3.25963e-010 1
vt 1 0
vt 1 1
vt 0 0
vt 1 0
vt 1 1
vt 3.25963e-010 1
vt 0 0
vt 3.25963e-010 1
vt 1 0
vt 1 1
vt 0 0
vt 1 0
vt 1 1
vt 3.25963e-010 1
vt 0 0
vt 1 0
vt 1 1
vt 3.25963e-010 1
vt 0 0
vt 3.25963e-010 1
vt 1 0
vt 1 1
vt 0 0
vt 3.25963e-010 1
vt 0 0
vt 1 0
vt 1 1
vt 1 0
vt 1 1
vt 3.25963e-010 1
vt 0 0
vt 1 0
vt 1 1
vt 3.25963e-010 1
vt 0 0
vt 1 0
vt 1 1
vt 3.25963e-010 1
vt 0 0
vt 3.25963e-010 1
vt 1 0
vt 1 1
vt 0 0
vt 3.25963e-010 1
vt 1 0
vt 1 1
vt 0 0
vt 3.25963e-010 1
vt 1 0
vt 1 1
vt 0 0
vt 1 0
vt 1 1
vt 3.25963e-010 1
vt 0 0
f -96/-96/-96 -95/-95/-95 -94/-94/-94
f -95/-95/-95 -96/-96/-96 -93/-93/-93
f -92/-92/-92 -91/-91/-91 -90/-90/-90
f -92/-92/-92 -90/-90/-90 -89/-89/-89
f -88/-88/-88 -87/-87/-87 -86/-86/-86
f -88/-88/-88 -86/-86/-86 -85/-85/-85
f -84/-84/-84 -83/-83/-83 -82/-82/-82
f -83/-83/-83 -84/-84/-84 -81/-81/-81
f -80/-80/-80 -79/-79/-79 -78/-78/-78
f -80/-80/-80 -78/-78/-78 -77/-77/-77
f -76/-76/-76 -75/-75/-75 -74/-74/-74
f -76/-76/-76 -74/-74/-74 -73/-73/-73
f -72/-72/-72 -71/-71/-71 -70/-70/-70
f -72/-72/-72 -70/-70/-70 -69/-69/-69
f -68/-68/-68 -67/-67/-67 -66/-66/-66
f -68/-68/-68 -66/-66/-66 -65/-65/-65
f -64/-64/-64 -63/-63/-63 -62/-62/-62
f -63/-63/-63 -64/-64/-64 -61/-61/-61
f -60/-60/-60 -59/-59/-59 -58/-58/-58
f -59/-59/-59 -60/-60/-60 -57/-57/-57
f -56/-56/-56 -55/-55/-55 -54/-54/-54
f -55/-55/-55 -56/-56/-56 -53/-53/-53
f -52/-52/-52 -51/-51/-51 -50/-50/-50
f -52/-52/-52 -50/-50/-50 -49/-49/-49
f -48/-48/-48 -47/-47/-47 -46/-46/-46
f -47/-47/-47 -48/-48/-48 -45/-45/-45
f -44/-44/-44 -43/-43/-43 -42/-42/-42
f -44/-44/-44 -42/-42/-42 -41/-41/-41
f -40/-40/-40 -39/-39/-39 -38/-38/-38
f -40/-40/-40 -38/-38/-38 -37/-37/-37
f -36/-36/-36 -35/-35/-35 -34/-34/-34
f -35/-35/-35 -36/-36/-36 -33/-33/-33
f -32/-32/-32 -31/-31/-31 -30/-30/-30
f -32/-32/-32 -30/-30/-30 -29/-29/-29
f -28/-28/-28 -27/-27/-27 -26/-26/-26
f -28/-28/-28 -26/-26/-26 -25/-25/-25
f -24/-24/-24 -23/-23/-23 -22/-22/-22
f -24/-24/-24 -22/-22/-22 -21/-21/-21
f -20/-20/-20 -19/-19/-19 -18/-18/-18
f -20/-20/-20 -18/-18/-18 -17/-17/-17
f -16/-16/-16 -15/-15/-15 -14/-14/-14
f -15/-15/-15 -16/-16/-16 -13/-13/-13
f -12/-12/-12 -11/-11/-11 -10/-10/-10
f -11/-11/-11 -12/-12/-12 -9/-9/-9
f -8/-8/-8 -7/-7/-7 -6/-6/-6
f -7/-7/-7 -8/-8/-8 -5/-5/-5
f -4/-4/-4 -3/-3/-3 -2/-2/-2
f -4/-4/-4 -2/-2/-2 -1/-1/-1

